Coordinates
version=1
nRows=26
nColumns=22
inDegrees=yes

Units are S.I. units (second, meters, Newtons, ...)
If the header above contains a line with 'inDegrees', this indicates whether rotational values are in degrees (yes) or radians (no).

endheader
time	pelvis_tilt	pelvis_list	pelvis_rotation	pelvis_tx	pelvis_ty	pelvis_tz	hip_flexion_r	hip_adduction_r	hip_rotation_r	knee_angle_r	ankle_angle_r	subtalar_angle_r	hip_flexion_l	hip_adduction_l	hip_rotation_l	knee_angle_l	ankle_angle_l	subtalar_angle_l	lumbar_extension	lumbar_bending	lumbar_rotation
      4.29000000	      0.95975428	      2.58998979	     48.19173923	     -0.32241703	      0.99970571	     -0.30624523	     21.02327692	      1.36870310	    -32.66066488	    -19.33542868	      9.60102193	     -0.57120579	     -8.97320057	      3.33060417	     -8.84001384	    -13.12854765	     18.47765447	      0.26093641	    -17.01425576	     -0.07667591	     -1.45877780
      4.30000000	      1.07957484	      2.70635490	     47.94365127	     -0.31785504	      0.99852349	     -0.31117025	     20.69459937	      1.50263705	    -32.83878582	    -18.89163323	      9.26889290	     -1.26226147	     -9.32617918	      3.34158266	     -9.08204235	    -13.64428625	     18.83833617	      0.32100662	    -17.07332052	      0.02145412	     -1.69370845
      4.31000000	      1.19346127	      2.84065877	     47.70401525	     -0.31320283	      0.99738630	     -0.31614777	     20.37726165	      1.59044177	    -32.83299051	    -18.66240179	      8.81007109	     -2.21103198	     -9.67217570	      3.36667160	     -9.27626769	    -14.20341023	     19.15916686	      0.44393593	    -17.13007614	      0.10397571	     -1.89662085
      4.32000000	      1.31656701	      2.92159848	     47.47095760	     -0.30840587	      0.99627172	     -0.32118964	     20.10308959	      1.70712910	    -32.66051531	    -18.61636419	      8.25353382	     -3.32032610	     -9.96189465	      3.33633632	     -9.45635810	    -14.81796981	     19.45358970	      0.59129953	    -17.12490500	      0.24119540	     -2.09569528
      4.33000000	      1.45243271	      2.96466291	     47.22860716	     -0.30345684	      0.99523267	     -0.32627307	     19.87316769	      1.84122937	    -32.36064549	    -18.77589241	      7.64659902	     -4.65735429	    -10.21065590	      3.26276809	     -9.62738020	    -15.48751996	     19.69649542	      0.77772880	    -17.07907357	      0.41778275	     -2.25528058
      4.34000000	      1.59147138	      2.98326361	     46.97433517	     -0.29839292	      0.99430906	     -0.33138561	     19.70294961	      1.96532145	    -31.97531730	    -19.15973878	      7.04192763	     -6.20773629	    -10.42213593	      3.16918739	     -9.76695815	    -16.20763945	     19.87479457	      1.02124250	    -17.00569312	      0.61448852	     -2.36303002
      4.35000000	      1.74605189	      2.95898468	     46.70066892	     -0.29322327	      0.99352703	     -0.33649528	     19.59308737	      2.11377019	    -31.50002150	    -19.72406820	      6.51682659	     -7.80912752	    -10.57702794	      3.03180838	     -9.90082067	    -17.00127776	     19.97599490	      1.30956644	    -16.90540643	      0.85593753	     -2.41320914
      4.36000000	      1.92344022	      2.89395010	     46.40429928	     -0.28795630	      0.99292687	     -0.34157477	     19.52921732	      2.30260712	    -30.91665198	    -20.42212571	      6.12789127	     -9.31355052	    -10.67435389	      2.84592376	    -10.03871802	    -17.88097632	     19.98719207	      1.64671153	    -16.79326907	      1.14348898	     -2.41275964
      4.37000000	      2.13116887	      2.80331240	     46.08494645	     -0.28260352	      0.99255788	     -0.34661155	     19.47983355	      2.53363452	    -30.23618889	    -21.20182828	      5.86388430	    -10.59861835	    -10.72440810	      2.61688748	    -10.18042662	    -18.85834907	     19.90305013	      2.04633927	    -16.69414191	      1.47146885	     -2.36176242
      4.38000000	      2.38077928	      2.69226391	     45.74486922	     -0.27713363	      0.99244763	     -0.35160691	     19.40071073	      2.82306946	    -29.49552970	    -21.99110079	      5.74337944	    -11.60531903	    -10.73381782	      2.33320301	    -10.34269387	    -19.94712372	     19.67120557	      2.52554990	    -16.62029626	      1.84234280	     -2.26875344
      4.39000000	      2.66214017	      2.57953737	     45.37232146	     -0.27153155	      0.99260154	     -0.35651102	     19.25773530	      3.16865280	    -28.68354840	    -22.72105545	      5.70214748	    -12.30500031	    -10.70796659	      2.01872597	    -10.51195679	    -21.14711899	     19.32851642	      3.07339517	    -16.58470560	      2.22485634	     -2.14731468
      4.40000000	      2.95933094	      2.46807742	     44.98552302	     -0.26578935	      0.99299730	     -0.36135066	     19.03038855	      3.54450596	    -27.93116781	    -23.34541289	      5.75818167	    -12.78124108	    -10.63174056	      1.68100061	    -10.66556493	    -22.46696475	     18.78955859	      3.75902825	    -16.57054971	      2.60413464	     -1.99726993
      4.41000000	      3.25314034	      2.35945811	     44.56299411	     -0.25992148	      0.99357717	     -0.36603490	     18.71902003	      3.95245322	    -27.20295621	    -23.82342343	      5.84488483	    -13.03801745	    -10.47499901	      1.33141939	    -10.83304680	    -23.92992876	     18.12158341	      4.48225001	    -16.57369104	      2.95722382	     -1.83942915
      4.42000000	      3.52079241	      2.26083655	     44.15402477	     -0.25398205	      0.99431014	     -0.37062462	     18.32532580	      4.34275353	    -26.62575791	    -24.14839578	      6.01274110	    -13.18348653	    -10.22234696	      0.98626666	    -10.93137170	    -25.52929742	     17.23008319	      5.40319164	    -16.57258319	      3.26773618	     -1.68540665
      4.43000000	      3.75422218	      2.15676503	     43.74058865	     -0.24799425	      0.99512045	     -0.37505432	     17.87082986	      4.73495729	    -26.13451435	    -24.31253598	      6.21161180	    -13.24674336	     -9.84037050	      0.63283248	    -10.99648328	    -27.28514889	     16.17894317	      6.38402367	    -16.55544366	      3.54270774	     -1.54590837
      4.44000000	      3.94707649	      2.04643030	     43.34606160	     -0.24199881	      0.99597024	     -0.37934437	     17.37080667	      5.11536562	    -25.75006909	    -24.33128705	      6.44877253	    -13.27717267	     -9.32110887	      0.26942446	    -10.99850736	    -29.19062261	     14.94429101	      7.45426069	    -16.51266749	      3.78071058	     -1.42704839
      4.45000000	      4.10161310	      1.92189465	     42.96998842	     -0.23603059	      0.99681859	     -0.38349487	     16.84539379	      5.48948978	    -25.44564682	    -24.22681377	      6.68188837	    -13.29802713	     -8.65883843	     -0.11798096	    -10.95535638	    -31.23959437	     13.54793916	      8.55625074	    -16.43984580	      3.99751859	     -1.33602014
      4.46000000	      4.21482186	      1.80104716	     42.61094573	     -0.23011658	      0.99764519	     -0.38754067	     16.30726731	      5.83080764	    -25.21013520	    -24.04855209	      6.95204521	    -13.32166883	     -7.87978605	     -0.50261969	    -10.83984174	    -33.39258066	     11.99558944	      9.72804478	    -16.34630749	      4.17793420	     -1.23701576
      4.47000000	      4.29703441	      1.67669081	     42.25729221	     -0.22426364	      0.99841599	     -0.39145985	     15.76817397	      6.15753718	    -24.99877191	    -23.81297678	      7.22847542	    -13.35012862	     -6.99005286	     -0.90299974	    -10.69292110	    -35.63953009	     10.34902075	     10.84049547	    -16.23771685	      4.33607599	     -1.13349426
      4.48000000	      4.34857922	      1.55282529	     41.89871899	     -0.21848962	      0.99909466	     -0.39525009	     15.24878975	      6.46025560	    -24.79843645	    -23.56328158	      7.53292598	    -13.38351637	     -6.00192098	     -1.31004297	    -10.51646798	    -37.96042362	      8.67171793	     11.92916605	    -16.12028983	      4.46860469	     -0.99720116
      4.49000000	      4.38570448	      1.42344964	     41.53192261	     -0.21280088	      0.99966503	     -0.39890330	     14.74873193	      6.75545293	    -24.58636856	    -23.31156289	      7.82812865	    -13.41790283	     -4.92645153	     -1.74506096	    -10.33414035	    -40.34835857	      7.05547021	     12.86856513	    -16.00546276	      4.59682299	     -0.84582040
      4.50000000	      4.41351079	      1.28691543	     41.15101871	     -0.20719829	      1.00009850	     -0.40239454	     14.27993500	      7.04643047	    -24.35737762	    -23.08297768	      8.12207925	    -13.45327255	     -3.77569843	     -2.21316408	    -10.15389468	    -42.78353639	      5.59127055	     13.67934634	    -15.89969560	      4.72020356	     -0.66493009
      4.51000000	      4.44026298	      1.14675765	     40.74915213	     -0.20168417	      1.00039169	     -0.40571592	     13.84064716	      7.33451858	    -24.10688647	    -22.89154024	      8.42529125	    -13.49154047	     -2.56838904	     -2.71870484	     -9.99052222	    -45.24453907	      4.33866115	     14.36622900	    -15.81593885	      4.84346136	     -0.45213856
      4.52000000	      4.45578354	      1.00243302	     40.32029585	     -0.19624158	      1.00052932	     -0.40884230	     13.44878723	      7.61094961	    -23.84173257	    -22.75622702	      8.74874936	    -13.53648819	     -1.30825389	     -3.25716681	     -9.85023833	    -47.69919899	      3.33529057	     14.98439285	    -15.74424538	      4.95097200	     -0.19966595
      4.53000000	      4.55557265	      0.85008715	     39.85405954	     -0.19081752	      1.00064578	     -0.41176449	     12.99672761	      7.96445332	    -23.53808155	    -22.60910396	      8.98798254	    -13.57655421	     -0.09346441	     -3.91800561	     -9.78445801	    -50.11068503	      2.62345659	     15.28852203	    -15.76979892	      5.11700873	      0.10306818
      4.54000000	      4.62647800	      0.69377156	     39.35483640	     -0.18543919	      1.00062279	     -0.41447004	     12.60106892	      8.30358996	    -23.17861272	    -22.51029398	      9.28438730	    -13.62927954	      1.16163803	     -4.60913859	     -9.75601960	    -52.44140021	      2.18600126	     15.53248934	    -15.79051486	      5.25153887	      0.41918909
